# xmcd
# 
# Track frame offsets:
#     182
#     8390
#     26132
#     68120
#     88032
#     104087
#     120397
#     165990
#     211190
#     226295
#     241070
#     275645
#     291905
#     335585
# 
# Disc length: 4652
# 
# Revision: 4
# Processed by: cddbd v1.5.2PL0 Copyright (c) Steve Scherf et al.
# Submitted via: fre:ac v1.0.27
# 
DISCID=bb122a0e
DTITLE=The Arc Gospel Choir - Gospel
DYEAR=1990
DGENRE=Jazz
TTITLE0=The Purpose, The Apostles' Creed,Gloria Patri
TTITLE1=When We all
TTITLE2=Say No To Drugs
TTITLE3=Shout Now
TTITLE4=Kum Ba Ya
TTITLE5=Jesus Wash
TTITLE6=Thank You Lord
TTITLE7=Amazing Grace
TTITLE8=I Don't Know What You Come To Do
TTITLE9=Higher
TTITLE10=He's My Light
TTITLE11=Ride On
TTITLE12=I'm Bound For The Promised Land
TTITLE13=When We All
EXTD=YEAR: 1990
EXTT0=
EXTT1=
EXTT2=
EXTT3=
EXTT4=
EXTT5=
EXTT6=
EXTT7=
EXTT8=
EXTT9=
EXTT10=
EXTT11=
EXTT12=
EXTT13=
PLAYORDER=
